<svg width="416" height="125" xmlns="http://www.w3.org/2000/svg" xmlns:xlink="http://www.w3.org/1999/xlink" xml:space="preserve" overflow="hidden"><defs><clipPath id="clip0"><rect x="419" y="540" width="416" height="125"/></clipPath></defs><g clip-path="url(#clip0)" transform="translate(-419 -540)"><path d="M287.594 42.2916 292.572 42.2916 286.404 26.2404 280.004 26.2404 285.648 40.9455C285.804 41.3421 286.078 41.6829 286.434 41.9234 286.791 42.1637 287.213 42.2919 287.645 42.2916" transform="matrix(1 0 0 1.0016 419 540)"/><path d="M319.781 42.2916C320.211 42.293 320.632 42.1647 320.987 41.9241 321.342 41.6835 321.613 41.3421 321.764 40.9455L327.408 26.2404 321.009 26.2404 314.84 42.2916 319.781 42.2916Z" transform="matrix(1 0 0 1.0016 419 540)"/><path d="M334.837 47.6015 307.27 47.6015 307.27 21.5244 330.64 21.5244 330.64 15.6372 276.707 15.6372 276.707 21.5244 300.077 21.5244 300.077 47.6015 272.509 47.6015 272.509 53.4886 300.077 53.4886 300.077 72.8735 307.27 72.8735 307.27 53.4886 334.837 53.4886 334.837 47.6015Z" transform="matrix(1 0 0 1.0016 419 540)"/><path d="M202.999 15.6355 196.408 15.6355 196.408 28.5923 190.111 28.5923 190.111 34.492 196.408 34.492 196.408 62.5189 190.111 63.8397 190.111 69.7268 209.296 65.7141 209.296 59.827 202.999 61.1478 202.999 34.492 209.296 34.492 209.296 28.5923 202.999 28.5923 202.999 15.6355Z" transform="matrix(1 0 0 1.0016 419 540)"/><path d="M222.426 65.6386C222.028 65.6386 221.647 65.4836 221.366 65.2073 221.086 64.9314 220.928 64.557 220.928 64.1666L220.928 33.0831 227.698 31.6742 227.698 55.2101 234.289 55.2101 234.289 30.2905 239.959 29.108C240.091 29.0796 240.227 29.0808 240.358 29.1113 240.489 29.1419 240.611 29.201 240.716 29.2845 240.82 29.3678 240.905 29.4733 240.962 29.5931 241.019 29.7128 241.048 29.8437 241.047 29.976L241.047 48.4425C241.047 48.6762 240.953 48.9001 240.785 49.0651 240.617 49.2301 240.389 49.323 240.151 49.323L239.255 49.323 239.255 55.2101 243.453 55.2101C246.09 55.2101 247.651 53.361 247.651 50.5055L247.651 23.5479C247.657 23.3038 247.607 23.0615 247.506 22.8385 247.405 22.6155 247.255 22.4174 247.066 22.2585 246.877 22.0996 246.655 21.9839 246.416 21.9197 246.176 21.8555 245.925 21.8445 245.68 21.8875L234.289 24.2649 234.289 12.6919 227.698 12.6919 227.698 25.6487 220.902 27.0576 220.902 15.6355 214.311 15.6355 214.311 28.4539 211.06 29.1332 211.06 35.1461 214.311 34.4668 214.311 67.3871C214.311 69.9029 215.437 71.6137 218.611 71.6137L250.019 71.6137 250.019 65.651 222.426 65.6386Z" transform="matrix(1 0 0 1.0016 419 540)"/><path d="M369.585 14.454 357.323 33.5621 357.323 39.4493 367.921 37.2479 357.323 52.2423 357.323 58.092 376.508 54.079 376.508 48.1919 365.91 50.406 376.508 35.3988 376.508 29.5619 365.439 31.8765 376.508 14.454 369.585 14.454Z" transform="matrix(1 0 0 1.0016 419 540)"/><path d="M357.323 71.6026 376.508 67.5896 376.508 61.7025 357.323 65.7155 357.323 71.6026Z" transform="matrix(1 0 0 1.0016 419 540)"/><path d="M409.691 19.7621 405.056 13.0322 399.669 14.1517 404.29 20.8817 409.691 19.7621Z" transform="matrix(1 0 0 1.0016 419 540)"/><path d="M404.484 57.2496C408.158 55.2042 411.712 52.9575 415.13 50.5197 414.222 48.8464 413.979 48.507 412.481 45.4879 409.046 47.9929 405.441 50.2667 401.693 52.2933 400.279 49.2911 399.152 46.1663 398.327 42.9593L411.753 39.6133 411.753 33.7261 397.11 37.3741C396.791 35.4997 396.521 33.5123 396.316 31.4115L411.854 28.1157 411.854 22.1657 395.817 25.5747 394.666 12.6682 388.048 12.6682 389.331 26.9458 379.808 28.9711 379.808 34.8584 389.841 32.7323C390.021 34.3173 390.302 36.4305 390.763 38.8963L379.704 41.651 379.704 47.5384 392.004 44.4815C392.936 48.1575 394.177 51.7511 395.717 55.2243 390.787 57.5456 385.646 59.3989 380.359 60.7592L383.008 66.0424C388.319 64.697 393.467 62.7952 398.365 60.3692 401.357 65.7079 405.898 70.0516 411.407 72.8478L415.976 67.9671C415.976 67.9671 409.923 65.615 404.456 57.2243" transform="matrix(1 0 0 1.0016 419 540)"/><path d="M202.176 82.8613 205.593 82.8613 205.593 103.278 202.176 103.278 202.176 94.4344 193.269 94.4344 193.269 103.278 189.864 103.278 189.864 82.8613 193.269 82.8613 193.269 91.2267 202.176 91.2267 202.176 82.8613Z" transform="matrix(1 0 0 1.0016 419 540)"/><path d="M210.998 101.415C209.673 100.15 208.838 98.4714 208.634 96.667 208.431 94.8629 208.872 93.045 209.882 91.5256 210.892 90.0058 212.408 88.8784 214.171 88.3366 215.933 87.7951 217.833 87.8727 219.544 88.556 221.255 89.2396 222.671 90.4866 223.549 92.0833 224.428 93.6804 224.713 95.5275 224.359 97.309 224.003 99.0905 223.029 100.695 221.603 101.848 220.176 103.001 218.386 103.63 216.539 103.629 215.511 103.653 214.488 103.468 213.535 103.088 212.581 102.707 211.718 102.137 210.998 101.415ZM216.539 100.572C217.147 100.593 217.754 100.493 218.322 100.276 218.889 100.06 219.406 99.7329 219.841 99.3141 220.51 98.6731 220.968 97.8501 221.158 96.9512 221.347 96.052 221.258 95.1181 220.903 94.2687 220.548 93.4194 219.943 92.6938 219.165 92.1853 218.388 91.6767 217.473 91.4084 216.539 91.4143 215.933 91.3942 215.329 91.4954 214.763 91.7114 214.198 91.9277 213.683 92.2546 213.25 92.6723 212.386 93.5594 211.905 94.7402 211.905 95.9681 211.905 97.196 212.386 98.3767 213.25 99.2638 213.682 99.6833 214.196 100.012 214.762 100.228 215.328 100.444 215.933 100.544 216.539 100.522" transform="matrix(1 0 0 1.0016 419 540)"/><path d="M230.48 91.1376C230.855 90.271 231.498 89.543 232.319 89.0573 233.139 88.5713 234.095 88.3529 235.049 88.4333L235.049 91.8421C233.904 91.7325 232.759 92.0462 231.837 92.7226 231.359 93.106 230.985 93.5993 230.749 94.1588 230.512 94.7187 230.42 95.3274 230.48 95.9303L230.48 103.277 227.293 103.277 227.293 88.6974 230.506 88.6974 230.48 91.1376Z" transform="matrix(1 0 0 1.0016 419 540)"/><path d="M237.537 85.9175C237.157 85.5386 236.945 85.0269 236.949 84.4951 236.952 83.963 237.171 83.4545 237.556 83.0807 237.941 82.707 238.462 82.499 239.003 82.5025 239.544 82.5063 240.062 82.7209 240.442 83.0995 240.636 83.2815 240.79 83.5002 240.895 83.7425 241 83.9845 241.055 84.2452 241.055 84.5083 241.055 84.7718 241 85.0325 240.895 85.2745 240.79 85.5168 240.636 85.7352 240.442 85.9175 240.254 86.1047 240.03 86.2538 239.783 86.3554 239.536 86.4569 239.27 86.5093 239.002 86.5093 238.734 86.5093 238.469 86.4569 238.222 86.3554 237.975 86.2538 237.751 86.1047 237.562 85.9175M237.409 88.6974 240.621 88.6974 240.621 103.277 237.409 103.277 237.409 88.6974Z" transform="matrix(1 0 0 1.0016 419 540)"/><path d="M248.168 100.296 255.374 100.296 255.374 103.278 243.804 103.278 243.804 101.177 250.741 91.6666 244.098 91.6666 244.098 88.6978 255.079 88.6978 255.079 90.7861 248.168 100.296Z" transform="matrix(1 0 0 1.0016 419 540)"/><path d="M258.942 101.415C257.618 100.15 256.783 98.4721 256.579 96.6687 256.375 94.865 256.815 93.0478 257.824 91.528 258.833 90.0085 260.349 88.8808 262.111 88.3383 263.872 87.7954 265.771 87.8717 267.482 88.5536 269.193 89.2358 270.61 90.481 271.49 92.0764 272.369 93.6721 272.658 95.5185 272.305 97.2996 271.952 99.0811 270.98 100.686 269.556 101.841 268.131 102.996 266.343 103.628 264.496 103.629 263.466 103.652 262.441 103.468 261.486 103.087 260.531 102.706 259.665 102.137 258.942 101.415ZM264.496 100.572C265.103 100.594 265.708 100.493 266.273 100.277 266.839 100.061 267.353 99.7332 267.785 99.3141 268.675 98.4551 269.18 97.284 269.191 96.0586 269.202 94.8327 268.717 93.6534 267.843 92.7791 266.969 91.9052 265.778 91.408 264.531 91.3976 263.284 91.3869 262.084 91.8635 261.194 92.7226 260.339 93.6142 259.863 94.7932 259.863 96.0183 259.863 97.2438 260.339 98.4225 261.194 99.3141 261.629 99.7329 262.146 100.06 262.714 100.276 263.282 100.493 263.888 100.593 264.496 100.572Z" transform="matrix(1 0 0 1.0016 419 540)"/><path d="M288.727 94.32 288.727 103.277 285.514 103.277 285.514 94.6473C285.569 94.2008 285.522 93.748 285.376 93.3216 285.231 92.8952 284.991 92.5059 284.674 92.1821 284.356 91.8584 283.97 91.6077 283.542 91.4489 283.114 91.2898 282.655 91.2267 282.199 91.2635 279.934 91.2635 278.424 92.6345 278.424 95.4647L278.424 103.277 275.224 103.277 275.224 88.6971 278.488 88.6971 278.488 90.559C278.987 89.8196 279.676 89.223 280.485 88.8299 281.294 88.4367 282.195 88.2606 283.095 88.3199 286.5 88.3199 288.791 90.584 288.791 94.32" transform="matrix(1 0 0 1.0016 419 540)"/><path d="M311.644 103.278 307.241 95.8433 303.209 95.8433 303.209 103.278 299.792 103.278 299.792 82.8613 308.111 82.8613C309.881 82.8648 311.577 83.5581 312.827 84.7891 314.077 86.0201 314.779 87.6886 314.779 89.4279 314.771 90.705 314.373 91.9502 313.639 93.0037 312.905 94.0573 311.867 94.8709 310.658 95.3403L315.381 103.278 311.644 103.278ZM303.209 86.0063 303.209 92.837 308.111 92.837C308.996 92.784 309.827 92.4012 310.435 91.7665 311.043 91.1317 311.381 90.2932 311.381 89.4216 311.381 88.5501 311.043 87.7112 310.435 87.0768 309.827 86.442 308.996 86.059 308.111 86.0063L303.209 86.0063Z" transform="matrix(1 0 0 1.0016 419 540)"/><path d="M318.467 101.415C317.143 100.15 316.308 98.4714 316.104 96.667 315.901 94.8629 316.342 93.045 317.352 91.5256 318.362 90.0058 319.878 88.8784 321.641 88.3366 323.404 87.7951 325.303 87.8727 327.014 88.556 328.725 89.2396 330.141 90.4866 331.019 92.0833 331.898 93.6804 332.184 95.5275 331.829 97.309 331.473 99.0905 330.499 100.695 329.073 101.848 327.646 103.001 325.856 103.63 324.009 103.629 322.981 103.65 321.959 103.464 321.006 103.083 320.053 102.703 319.19 102.135 318.467 101.415ZM324.009 100.572C324.618 100.593 325.224 100.493 325.792 100.276 326.359 100.06 326.876 99.7329 327.311 99.3141 327.98 98.6731 328.438 97.8501 328.628 96.9512 328.817 96.052 328.728 95.1181 328.373 94.2687 328.018 93.4194 327.413 92.6938 326.636 92.1853 325.858 91.6767 324.944 91.4084 324.009 91.4143 323.403 91.3949 322.799 91.4964 322.234 91.7124 321.669 91.9287 321.153 92.2553 320.72 92.6723 319.865 93.5639 319.389 94.743 319.389 95.9681 319.389 97.1932 319.865 98.3722 320.72 99.2638 321.152 99.683 321.667 100.011 322.233 100.227 322.798 100.443 323.403 100.543 324.009 100.522" transform="matrix(1 0 0 1.0016 419 540)"/><path d="M348.369 90.5348C349.762 92.0213 350.535 93.9678 350.535 95.9882 350.535 98.0086 349.762 99.9547 348.369 101.441 347.707 102.151 346.899 102.715 346 103.096 345.1 103.478 344.129 103.668 343.149 103.655 342.137 103.701 341.13 103.494 340.221 103.054 339.313 102.614 338.533 101.955 337.953 101.139L337.953 103.24 334.804 103.24 334.804 82.8613 338.004 82.8613 338.004 90.7612C338.594 89.9593 339.378 89.3149 340.285 88.8864 341.192 88.4579 342.194 88.2593 343.2 88.3085 344.181 88.2946 345.154 88.486 346.054 88.8697 346.954 89.2538 347.762 89.8213 348.421 90.5348M342.688 100.599C343.304 100.622 343.919 100.523 344.496 100.307 345.072 100.09 345.598 99.7617 346.041 99.3405 346.472 98.8932 346.809 98.3656 347.027 97.7888 347.249 97.2116 347.346 96.5973 347.322 95.9816 347.35 95.3718 347.249 94.7631 347.027 94.1921 346.809 93.6211 346.473 93.1001 346.041 92.6609 345.146 91.7973 343.942 91.3134 342.688 91.3134 341.434 91.3134 340.23 91.7973 339.335 92.6609 338.905 93.1015 338.571 93.6225 338.351 94.1932 338.131 94.7638 338.03 95.3722 338.055 95.9816 338.032 96.5969 338.133 97.2105 338.353 97.787 338.572 98.3635 338.906 98.8915 339.335 99.3405 339.78 99.7599 340.306 100.088 340.882 100.303 341.458 100.519 342.072 100.62 342.688 100.599Z" transform="matrix(1 0 0 1.0016 419 540)"/><path d="M354.9 101.415C353.576 100.15 352.74 98.4714 352.539 96.667 352.335 94.8629 352.775 93.045 353.787 91.5256 354.796 90.0058 356.311 88.8784 358.075 88.3366 359.837 87.7951 361.736 87.8727 363.449 88.556 365.158 89.2396 366.576 90.4866 367.453 92.0833 368.33 93.6804 368.618 95.5275 368.261 97.309 367.907 99.0905 366.933 100.695 365.508 101.848 364.08 103.001 362.291 103.63 360.443 103.629 359.414 103.65 358.394 103.464 357.441 103.083 356.488 102.703 355.625 102.135 354.9 101.415ZM360.443 100.572C361.05 100.593 361.657 100.493 362.225 100.276 362.794 100.06 363.31 99.7329 363.743 99.3141 364.44 98.6752 364.919 97.8432 365.12 96.9294 365.324 96.0156 365.238 95.0629 364.874 94.1983 364.51 93.3341 363.889 92.5985 363.092 92.0899 362.291 91.5814 361.355 91.3238 360.405 91.3515 359.798 91.3321 359.195 91.4333 358.63 91.6497 358.065 91.866 357.549 92.1922 357.115 92.6096 356.259 93.5012 355.784 94.6799 355.784 95.9053 355.784 97.1305 356.259 98.3095 357.115 99.2011 357.549 99.6199 358.062 99.9475 358.627 100.164 359.195 100.38 359.798 100.481 360.405 100.459" transform="matrix(1 0 0 1.0016 419 540)"/><path d="M379.17 91.7283 375.499 91.7283 375.499 98.7224C375.499 100.597 376.778 100.559 379.17 100.446L379.17 103.276C374.282 103.855 372.285 102.546 372.285 98.7224L372.285 91.7283 369.561 91.7283 369.561 88.6967 372.285 88.6967 372.285 84.6082 375.499 84.6082 375.499 88.6967 379.17 88.6967 379.17 91.7283Z" transform="matrix(1 0 0 1.0016 419 540)"/><path d="M382.231 85.9175C382.041 85.73 381.891 85.5078 381.791 85.2637 381.69 85.0197 381.638 84.7586 381.642 84.4951 381.642 84.2317 381.697 83.9713 381.801 83.7287 381.905 83.486 382.058 83.2659 382.249 83.0807 382.439 82.8956 382.665 82.7493 382.914 82.6502 383.164 82.551 383.427 82.5008 383.694 82.5025 383.965 82.5042 384.228 82.558 384.474 82.6606 384.724 82.7629 384.946 82.9119 385.136 83.0995 385.327 83.2815 385.483 83.5002 385.587 83.7425 385.694 83.9845 385.746 84.2452 385.746 84.5083 385.746 84.7718 385.694 85.0325 385.587 85.2745 385.483 85.5168 385.327 85.7352 385.136 85.9175 384.946 86.1047 384.724 86.2538 384.474 86.3554 384.228 86.4569 383.965 86.5093 383.694 86.5093 383.427 86.5093 383.16 86.4569 382.914 86.3554 382.668 86.2538 382.443 86.1047 382.255 85.9175M382.103 88.6974 385.313 88.6974 385.313 103.277 382.103 103.277 382.103 88.6974Z" transform="matrix(1 0 0 1.0016 419 540)"/><path d="M390.385 101.415C389.657 100.7 389.085 99.8476 388.7 98.9092 388.319 97.9708 388.135 96.9658 388.159 95.9553 388.128 94.9458 388.312 93.9415 388.697 93.0044 389.078 92.0674 389.653 91.2177 390.385 90.5084 391.116 89.7822 391.99 89.2112 392.954 88.8306 393.917 88.4496 394.95 88.2672 395.99 88.2943 397.339 88.261 398.674 88.5962 399.842 89.2622 401.01 89.9285 401.967 90.8995 402.608 92.0681L399.842 93.6406C399.488 92.9427 398.941 92.3596 398.261 91.9606 397.578 91.5613 396.795 91.363 396.004 91.389 395.391 91.3754 394.784 91.4857 394.219 91.7128 393.654 91.9402 393.141 92.2795 392.714 92.7098 391.875 93.5965 391.407 94.7627 391.407 95.974 391.407 97.1852 391.875 98.3514 392.714 99.2382 393.148 99.6573 393.661 99.9849 394.226 100.201 394.791 100.418 395.398 100.518 396.004 100.496 396.809 100.521 397.606 100.325 398.303 99.9291 399.003 99.5335 399.575 98.9546 399.956 98.2571L402.709 99.8043C402.054 100.97 401.086 101.938 399.911 102.603 398.736 103.268 397.398 103.605 396.042 103.578 395.002 103.605 393.969 103.423 393.006 103.042 392.042 102.661 391.168 102.09 390.437 101.364" transform="matrix(1 0 0 1.0016 419 540)"/><path d="M410.557 94.6088C412.849 95.1122 415.816 96.043 415.754 99.1626 415.775 99.8046 415.636 100.442 415.345 101.017 415.054 101.592 414.624 102.088 414.09 102.458 412.883 103.287 411.438 103.706 409.968 103.653 408.727 103.752 407.482 103.479 406.404 102.871 405.323 102.263 404.456 101.347 403.915 100.245L406.664 98.6721C406.893 99.3387 407.34 99.9097 407.943 100.292 408.543 100.673 409.257 100.843 409.968 100.773 411.656 100.773 412.526 100.219 412.526 99.1373 412.526 98.0557 411.247 97.6404 409.711 97.2632 407.486 96.7096 404.491 95.8416 404.591 92.7722 404.574 92.1516 404.702 91.5353 404.973 90.9733 405.239 90.4114 405.642 89.9201 406.141 89.5395 406.865 89.034 407.683 88.6794 408.55 88.4967 409.417 88.3137 410.315 88.3071 411.185 88.4766 412.055 88.6461 412.88 88.9886 413.611 89.483 414.339 89.977 414.96 90.6128 415.431 91.3508L412.731 92.8353C412.502 92.3059 412.11 91.8604 411.611 91.5626 411.109 91.2645 410.526 91.129 409.944 91.1747 408.661 91.1747 407.781 91.6906 407.781 92.7219 407.781 93.7536 409.06 94.1814 410.568 94.6088" transform="matrix(1 0 0 1.0016 419 540)"/><path d="M46.9907 42.4171C46.9882 42.839 46.9498 43.2598 46.8756 43.6751L89.5839 65.06C90.2342 64.2786 91.052 63.6477 91.979 63.2129 92.906 62.7779 93.9193 62.5498 94.9464 62.5442 95.9469 62.5477 96.9339 62.7668 97.839 63.1859L117.228 41.6374C116.552 40.5687 116.193 39.3356 116.192 38.0772 116.192 36.9609 116.469 35.8613 116.997 34.8733 117.525 33.8849 118.29 33.0376 119.225 32.404L111.213 3.81111C111.18 3.69058 111.119 3.5793 111.035 3.48605 110.95 3.39278 110.845 3.3201 110.727 3.27373 110.609 3.22737 110.482 3.20859 110.355 3.21889 110.229 3.22919 110.106 3.26828 109.997 3.33308L46.8371 40.7694C46.9751 41.3085 47.0479 41.8614 47.0548 42.4171" transform="matrix(1 0 0 1.0016 419 540)"/><path d="M44.6604 37.2601 105.146 1.45913C105.303 1.36254 105.424 1.21685 105.487 1.04528 105.551 0.873711 105.554 0.686143 105.497 0.512467 105.439 0.338793 105.325 0.189002 105.17 0.0869911 105.016-0.0150198 104.832-0.063388 104.647-0.0504039L37.647 6.15122C37.536 6.1621 37.4289 6.19469 37.3312 6.24707 37.2334 6.29945 37.1474 6.37055 37.0781 6.45618 37.0091 6.54181 36.9581 6.64023 36.9283 6.74554 36.8982 6.8509 36.8902 6.96107 36.9044 7.06954L41.0127 35.5742C42.3713 35.7705 43.6401 36.357 44.6604 37.2601Z" transform="matrix(1 0 0 1.0016 419 540)"/><path d="M123.237 31.1831C124.715 31.1853 126.154 31.648 127.347 32.5046 128.541 33.3612 129.427 34.5677 129.879 35.9507L154.657 35.5354C154.827 35.5358 154.993 35.4838 155.131 35.3874 155.27 35.291 155.374 35.1544 155.431 34.997 155.487 34.8397 155.492 34.6687 155.445 34.5083 155.398 34.3478 155.302 34.2057 155.169 34.1015L116.774 3.03043C116.638 2.93246 116.475 2.87798 116.307 2.87441 116.138 2.87083 115.973 2.91835 115.833 3.01047 115.693 3.10259 115.586 3.23484 115.525 3.38922 115.464 3.54359 115.454 3.71263 115.494 3.87324L123.173 31.1831 123.237 31.1831Z" transform="matrix(1 0 0 1.0016 419 540)"/><path d="M133.126 86.8722C133.269 86.9454 133.43 86.9759 133.59 86.9596 133.751 86.9433 133.902 86.8806 134.027 86.78 134.151 86.6795 134.243 86.545 134.289 86.3935 134.336 86.242 134.337 86.0805 134.291 85.9286L122.772 44.9325C121.915 44.8763 121.074 44.6722 120.289 44.3286L100.913 65.8393C101.594 66.9198 101.958 68.1654 101.962 69.437 101.957 70.0021 101.88 70.5643 101.732 71.11L133.126 86.8722Z" transform="matrix(1 0 0 1.0016 419 540)"/><path d="M87.9348 69.438C87.9216 69.212 87.9216 68.9849 87.9348 68.7589L45.0216 47.1976 44.8295 47.3866 87.9861 120.951C88.0721 121.105 88.2069 121.226 88.3702 121.298 88.5335 121.369 88.7158 121.386 88.8895 121.347 89.0635 121.307 89.2195 121.212 89.3336 121.077 89.4476 120.942 89.5138 120.774 89.5218 120.598L92.0816 75.7529C90.8336 75.2201 89.7711 74.3413 89.0233 73.2243 88.2756 72.1074 87.8752 70.8004 87.8706 69.4633" transform="matrix(1 0 0 1.0016 419 540)"/><path d="M99.5994 74.5704C98.6492 75.4132 97.4796 75.9793 96.2208 76.206L93.4308 123.945C93.4301 124.091 93.47 124.236 93.5459 124.363 93.6215 124.489 93.7307 124.593 93.8617 124.664 93.9928 124.735 94.1404 124.769 94.2899 124.765 94.4393 124.76 94.5845 124.716 94.7107 124.636L135.154 93.729C135.263 93.6437 135.349 93.5327 135.404 93.4066 135.458 93.28 135.479 93.1421 135.465 93.0055 135.451 92.8689 135.402 92.7378 135.323 92.6248 135.244 92.5115 135.138 92.4196 135.013 92.3579L99.5994 74.5704Z" transform="matrix(1 0 0 1.0016 419 540)"/><path d="M156.43 39.5366 129.95 39.9769C129.451 41.6735 128.311 43.1181 126.764 44.0149L138.538 85.9168C138.586 86.0815 138.685 86.2271 138.821 86.3332 138.957 86.4396 139.124 86.5013 139.298 86.5096 139.471 86.5179 139.644 86.4725 139.79 86.3796 139.936 86.2871 140.048 86.1515 140.112 85.9924L157.211 40.6311C157.259 40.508 157.276 40.3749 157.26 40.2438 157.243 40.1128 157.195 39.9877 157.117 39.8795 157.04 39.7713 156.937 39.6836 156.817 39.6237 156.697 39.564 156.565 39.5342 156.43 39.5366Z" transform="matrix(1 0 0 1.0016 419 540)"/><path d="M2.58532 40.9344 33.3015 40.4817C33.5799 39.5557 34.053 38.6981 34.6902 37.9635 35.3274 37.2289 36.1143 36.634 37.0004 36.2173L33.1607 9.80051C33.1394 9.65013 33.0752 9.50879 32.9756 9.39272 32.876 9.2767 32.745 9.19069 32.5978 9.14469 32.4506 9.09865 32.2932 9.09445 32.1438 9.13259 31.9942 9.17072 31.8588 9.24966 31.7529 9.36021L1.98379 39.5509C1.86894 39.6649 1.79137 39.8102 1.76109 39.9675 1.73081 40.1253 1.74916 40.2886 1.81382 40.4359 1.87847 40.5832 1.98647 40.708 2.12393 40.7947 2.2614 40.8814 2.42208 40.9257 2.58532 40.9219" transform="matrix(1 0 0 1.0016 419 540)"/><path d="M41.1583 49.1975C40.7701 49.2676 40.3759 49.3054 39.9811 49.3106 39.3848 49.3019 38.7917 49.2215 38.2148 49.0717L16.1248 84.5957C16.0478 84.7115 16.002 84.8446 15.9916 84.9826 15.9812 85.1205 16.0067 85.2589 16.0655 85.3847 16.1243 85.5102 16.2146 85.6194 16.3279 85.7012 16.4413 85.7834 16.574 85.8357 16.7135 85.8537L65.0659 92.6089C65.2264 92.6387 65.3924 92.6203 65.5422 92.5569 65.6923 92.4931 65.8195 92.387 65.9076 92.2518 65.9956 92.1163 66.0407 91.9585 66.0365 91.798 66.0324 91.6375 65.9797 91.4819 65.885 91.3508L41.1583 49.1975Z" transform="matrix(1 0 0 1.0016 419 540)"/><path d="M33.3292 44.5047 0.808364 44.9828C0.679189 44.9862 0.552646 45.0195 0.438762 45.0795 0.324875 45.1395 0.226795 45.2247 0.152273 45.3284 0.07775 45.4324 0.0288442 45.5517 0.00943866 45.6771-0.00996691 45.803 0.000636941 45.9313 0.0404505 46.0519L11.8918 81.0351C11.9401 81.1827 12.0308 81.3138 12.153 81.4119 12.2751 81.51 12.4235 81.5714 12.5803 81.5887 12.7371 81.606 12.8957 81.5783 13.0369 81.5093 13.1781 81.44 13.296 81.3322 13.3764 81.1987L34.737 46.9453C34.1004 46.2367 33.6209 45.4054 33.3292 44.5047Z" transform="matrix(1 0 0 1.0016 419 540)"/></g></svg>